<svg xmlns="http://www.w3.org/2000/svg" xmlns:xlink="http://www.w3.org/1999/xlink" width="500" zoomAndPan="magnify" viewBox="0 0 375 374.999991" height="500" preserveAspectRatio="xMidYMid meet" version="1.0"><defs><g/><clipPath id="035ee23e97"><path d="M 153.875 168.601562 L 172.464844 168.601562 L 172.464844 217.960938 L 153.875 217.960938 Z M 153.875 168.601562 " clip-rule="nonzero"/></clipPath><clipPath id="b0701f467b"><path d="M 141.242188 165.644531 L 166.742188 165.644531 L 166.742188 215.144531 L 141.242188 215.144531 Z M 141.242188 165.644531 " clip-rule="nonzero"/></clipPath><clipPath id="36cb0c3a50"><path d="M 141.242188 165.644531 L 156 165.644531 L 156 215.144531 L 141.242188 215.144531 Z M 141.242188 165.644531 " clip-rule="nonzero"/></clipPath></defs><g fill="#000000" fill-opacity="1"><g transform="translate(83.278504, 226.874985)"><g><path d="M 7.703125 -77 L 29.484375 -77 L 29.484375 0 L 7.703125 0 Z M 7.703125 -77 "/></g></g></g><g fill="#000000" fill-opacity="1"><g transform="translate(128.265876, 226.874985)"><g><path d="M 66.875 -40.15625 C 71.28125 -38.613281 74.726562 -36.207031 77.21875 -32.9375 C 79.707031 -29.675781 80.953125 -25.738281 80.953125 -21.125 C 80.953125 -14.375 78.238281 -9.164062 72.8125 -5.5 C 67.394531 -1.832031 59.550781 0 49.28125 0 L 7.703125 0 L 7.703125 -77 L 47.078125 -77 C 56.898438 -77 64.378906 -75.179688 69.515625 -71.546875 C 74.648438 -67.921875 77.21875 -63.03125 77.21875 -56.875 C 77.21875 -53.207031 76.316406 -49.925781 74.515625 -47.03125 C 72.722656 -44.132812 70.175781 -41.84375 66.875 -40.15625 Z M 29.265625 -61.265625 L 29.265625 -46.421875 L 44.21875 -46.421875 C 51.550781 -46.421875 55.21875 -48.914062 55.21875 -53.90625 C 55.21875 -58.8125 51.550781 -61.265625 44.21875 -61.265625 Z M 47.515625 -15.734375 C 55.140625 -15.734375 58.953125 -18.335938 58.953125 -23.546875 C 58.953125 -28.742188 55.140625 -31.34375 47.515625 -31.34375 L 29.265625 -31.34375 L 29.265625 -15.734375 Z M 47.515625 -15.734375 "/></g></g></g><g fill="#000000" fill-opacity="1"><g transform="translate(220.549892, 226.874985)"><g><path d="M 34.765625 1.546875 C 28.523438 1.546875 22.472656 0.773438 16.609375 -0.765625 C 10.742188 -2.304688 5.976562 -4.363281 2.3125 -6.9375 L 9.453125 -22.984375 C 12.898438 -20.710938 16.894531 -18.878906 21.4375 -17.484375 C 25.988281 -16.097656 30.46875 -15.40625 34.875 -15.40625 C 43.226562 -15.40625 47.40625 -17.492188 47.40625 -21.671875 C 47.40625 -23.867188 46.210938 -25.5 43.828125 -26.5625 C 41.453125 -27.625 37.625 -28.742188 32.34375 -29.921875 C 26.550781 -31.171875 21.707031 -32.507812 17.8125 -33.9375 C 13.925781 -35.363281 10.585938 -37.65625 7.796875 -40.8125 C 5.015625 -43.96875 3.625 -48.21875 3.625 -53.5625 C 3.625 -58.257812 4.90625 -62.492188 7.46875 -66.265625 C 10.039062 -70.046875 13.875 -73.035156 18.96875 -75.234375 C 24.070312 -77.441406 30.328125 -78.546875 37.734375 -78.546875 C 42.785156 -78.546875 47.769531 -77.972656 52.6875 -76.828125 C 57.601562 -75.691406 61.929688 -74.023438 65.671875 -71.828125 L 58.953125 -55.65625 C 51.617188 -59.613281 44.507812 -61.59375 37.625 -61.59375 C 33.289062 -61.59375 30.132812 -60.953125 28.15625 -59.671875 C 26.175781 -58.390625 25.1875 -56.722656 25.1875 -54.671875 C 25.1875 -52.617188 26.359375 -51.078125 28.703125 -50.046875 C 31.054688 -49.023438 34.835938 -47.960938 40.046875 -46.859375 C 45.910156 -45.609375 50.765625 -44.269531 54.609375 -42.84375 C 58.460938 -41.414062 61.800781 -39.140625 64.625 -36.015625 C 67.445312 -32.898438 68.859375 -28.664062 68.859375 -23.3125 C 68.859375 -18.695312 67.570312 -14.519531 65 -10.78125 C 62.4375 -7.039062 58.585938 -4.050781 53.453125 -1.8125 C 48.328125 0.425781 42.097656 1.546875 34.765625 1.546875 Z M 34.765625 1.546875 "/></g></g></g><g clip-path="url(#035ee23e97)"><path fill="#01111d" d="M 153.875 168.601562 L 172.464844 168.601562 L 172.464844 217.980469 L 153.875 217.980469 Z M 153.875 168.601562 " fill-opacity="1" fill-rule="nonzero"/></g><g clip-path="url(#b0701f467b)"><path fill="#ffffff" d="M 153.761719 165.644531 L 166.496094 165.644531 L 156.398438 182.753906 L 163.859375 182.753906 L 141.25 215.261719 L 151.347656 190.050781 L 143.226562 190.449219 Z M 153.761719 165.644531 " fill-opacity="1" fill-rule="nonzero"/></g><g clip-path="url(#36cb0c3a50)"><path fill="#01111d" d="M 153.761719 165.644531 L 155.957031 165.644531 L 143.226562 190.449219 Z M 141.25 215.261719 L 152.886719 190.050781 L 151.347656 190.050781 Z M 141.25 215.261719 " fill-opacity="1" fill-rule="nonzero"/></g></svg>